HIERARCHY
ROOT Hips
{
	OFFSET 40.956902 -9.158145 92.908897
	CHANNELS 6 Xposition Yposition Zposition Xrotation Yrotation Zrotation
	JOINT spine
	{
		OFFSET 0.000000 -0.429886 7.475601
		CHANNELS 3 Xrotation Yrotation Zrotation
		JOINT spine1
		{
			OFFSET 0.000000 -0.000002 9.923012
			CHANNELS 3 Xrotation Yrotation Zrotation
			JOINT spine2
			{
				OFFSET 0.000000 -0.000001 9.508041
				CHANNELS 3 Xrotation Yrotation Zrotation
				JOINT Neck
				{
					OFFSET 0.000000 -1.163845 24.411102
					CHANNELS 3 Xrotation Yrotation Zrotation
					JOINT Head
					{
						OFFSET 0.000000 -0.000001 7.375229
						CHANNELS 3 Xrotation Yrotation Zrotation
						End Site
						{
							OFFSET 0.000000 5.887407 17.852203
						}
					}
				}
				JOINT RightShoulder
				{
					OFFSET -4.003559 0.557467 10.267899
					CHANNELS 3 Xrotation Yrotation Zrotation
					JOINT RightArm
					{
						OFFSET 0.000000 -0.000003 13.467300
						CHANNELS 3 Xrotation Yrotation Zrotation
						JOINT RightArmRoll
						{
							OFFSET 0.000000 -0.000001 6.798584
							CHANNELS 3 Xrotation Yrotation Zrotation
							JOINT RightForeArm
							{
								OFFSET 0.000000 -0.000003 19.801804
								CHANNELS 3 Xrotation Yrotation Zrotation
								JOINT RightForeArmRoll
								{
									OFFSET 0.000000 -0.000001 7.629044
									CHANNELS 3 Xrotation Yrotation Zrotation
									JOINT RightHand
									{
										OFFSET 0.000000 -0.000003 15.309799
										CHANNELS 3 Xrotation Yrotation Zrotation
										End Site
										{
											OFFSET 0.000000 0.000000 0.100006
										}
									}
								}
							}
						}
					}
				}
				JOINT LeftShoulder
				{
					OFFSET 4.003559 0.557467 10.267899
					CHANNELS 3 Xrotation Yrotation Zrotation
					JOINT LeftArm
					{
						OFFSET 0.000000 -0.000003 13.467300
						CHANNELS 3 Xrotation Yrotation Zrotation
						JOINT LeftArmRoll
						{
							OFFSET 0.000000 -0.000001 6.798584
							CHANNELS 3 Xrotation Yrotation Zrotation
							JOINT LeftForeArm
							{
								OFFSET 0.000000 -0.000003 19.801804
								CHANNELS 3 Xrotation Yrotation Zrotation
								JOINT LeftForeArmRoll
								{
									OFFSET 0.000000 -0.000001 7.629044
									CHANNELS 3 Xrotation Yrotation Zrotation
									JOINT LeftHand
									{
										OFFSET 0.000000 -0.000003 15.309799
										CHANNELS 3 Xrotation Yrotation Zrotation
										End Site
										{
											OFFSET 0.000000 0.000000 0.100006
										}
									}
								}
							}
						}
					}
				}
			}
		}
	}
	JOINT RightUpLeg
	{
		OFFSET -6.626091 1.019270 -1.215050
		CHANNELS 3 Xrotation Yrotation Zrotation
		JOINT RightUpLegRoll
		{
			OFFSET 0.000000 -0.000003 17.951698
			CHANNELS 3 Xrotation Yrotation Zrotation
			JOINT RightLeg
			{
				OFFSET 0.000000 0.000004 -22.230400
				CHANNELS 3 Xrotation Yrotation Zrotation
				JOINT RightLegRoll
				{
					OFFSET 0.000000 -0.000004 22.303200
					CHANNELS 3 Xrotation Yrotation Zrotation
					JOINT RightFoot
					{
						OFFSET 0.000000 -0.000003 18.563606
						CHANNELS 3 Xrotation Yrotation Zrotation
						JOINT RightToeBase
						{
							OFFSET 0.000000 -0.000003 15.518295
							CHANNELS 3 Xrotation Yrotation Zrotation
							End Site
							{
								OFFSET 0.006577 0.866262 7.515396
							}
						}
					}
				}
			}
		}
	}
	JOINT LeftUpLeg
	{
		OFFSET 6.626091 1.019270 -1.215050
		CHANNELS 3 Xrotation Yrotation Zrotation
		JOINT LeftUpLegRoll
		{
			OFFSET 0.000000 -0.000003 17.951797
			CHANNELS 3 Xrotation Yrotation Zrotation
			JOINT LeftLeg
			{
				OFFSET 0.000000 -0.000004 22.230301
				CHANNELS 3 Xrotation Yrotation Zrotation
				JOINT LeftLegRoll
				{
					OFFSET 0.000000 -0.000003 22.509308
					CHANNELS 3 Xrotation Yrotation Zrotation
					JOINT LeftFoot
					{
						OFFSET 0.000000 -0.000004 18.357498
						CHANNELS 3 Xrotation Yrotation Zrotation
						JOINT LeftToeBase
						{
							OFFSET 0.000000 -0.000002 15.518295
							CHANNELS 3 Xrotation Yrotation Zrotation
							End Site
							{
								OFFSET -0.029476 0.866261 7.515381
							}
						}
					}
				}
			}
		}
	}
}
MOTION
Frames: 11
Frame Time: 0.041667
48.405598 -3.760167 93.432892 -3.040934 -5.134490 51.020601 -0.428350 -0.194607 0.300844 3.148833 -0.388432 0.602047 4.793887 -0.381194 0.606687 1.441840 15.037056 2.553237 6.579291 -11.908624 2.316026 -3.090909 -57.675115 -3.525789 139.292569 -22.560460 61.035745 -0.000000 0.000000 -0.000002 69.032148 -13.416784 11.514524 -0.000013 0.000008 -2.999990 -4.999819 -7.998689 -0.000128 -10.016255 67.691751 12.321046 90.162957 24.365300 -66.549484 -0.000002 0.000003 0.000010 52.321346 15.363544 -4.704434 0.000008 -0.000119 3.004832 -4.999976 7.999591 -0.000082 0.031162 -175.808004 -0.039589 -179.999991 0.000005 -1.270996 162.494367 2.029528 -0.635048 -0.000005 0.000006 0.399966 70.429885 6.901461 2.000531 27.692567 -7.242340 3.209146 -3.900444 -179.850356 4.561454 -0.000004 -0.000005 -1.070221 -11.987300 0.027411 0.416968 -0.000003 -0.000001 -0.015592 66.665385 -6.980514 -2.056650 25.456965 7.355622 -0.000004 
48.340897 -3.785064 93.428490 -3.027912 -5.147154 51.194505 -0.428364 -0.195073 0.304212 3.150623 -0.389357 0.608831 4.795677 -0.382037 0.613474 1.489332 15.067440 2.512243 6.578362 -11.956362 2.283725 -3.101571 -57.617727 -3.532353 139.339889 -22.642174 61.251784 0.000001 -0.000001 -0.000001 68.987711 -13.394942 11.477923 -0.000013 0.000009 -2.999988 -4.999813 -7.998690 -0.000130 -10.049079 67.680611 12.357434 90.119722 24.288732 -66.453964 -0.000002 -0.000001 0.000009 51.928846 15.527045 -4.777060 0.000009 -0.000118 3.004826 -4.999978 7.999590 -0.000082 0.114714 -175.871019 -0.042279 -179.999991 0.000005 -1.271003 162.559131 1.991136 -0.636616 -0.000006 0.000007 0.400048 70.462342 6.900257 2.001510 27.683399 -7.242837 3.198600 -3.943707 -179.877280 4.559959 -0.000005 -0.000005 -1.070222 -12.012000 0.010260 0.416129 -0.000003 -0.000000 -0.015678 66.672386 -6.980477 -2.056600 25.456957 7.355622 -0.000005 
48.289600 -3.830692 93.420593 -3.015432 -5.160134 51.369245 -0.428239 -0.195684 0.307621 3.152824 -0.390568 0.615718 4.797877 -0.383166 0.620373 1.535672 15.098121 2.470687 6.578237 -12.003977 2.250766 -3.115207 -57.557048 -3.542109 139.392522 -22.721400 61.468007 -0.000002 -0.000000 -0.000003 68.946696 -13.369565 11.438623 -0.000013 0.000009 -2.999990 -4.999817 -7.998689 -0.000128 -10.080486 67.670461 12.392244 90.076658 24.209295 -66.358238 -0.000001 -0.000003 0.000012 51.534696 15.693451 -4.847178 0.000009 -0.000120 3.004835 -4.999976 7.999593 -0.000081 0.199003 -175.935018 -0.044821 -179.999991 0.000005 -1.270998 162.623184 1.952704 -0.638084 -0.000004 0.000007 0.400159 70.495332 6.899067 2.002357 27.674344 -7.243285 3.188222 -3.986585 -179.905229 4.558649 -0.000004 -0.000005 -1.070223 -12.037599 -0.007011 0.415287 -0.000003 -0.000000 -0.015808 66.679899 -6.980379 -2.056700 25.456960 7.355624 -0.000005 
48.231495 -3.884606 93.423500 -3.003326 -5.173333 51.544446 -0.428013 -0.196398 0.311060 3.155315 -0.391980 0.622678 4.800368 -0.384494 0.627344 1.581187 15.129101 2.428763 6.578677 -12.051378 2.217327 -3.130912 -57.494026 -3.554071 139.450073 -22.797139 61.685296 0.000000 -0.000001 -0.000001 68.908078 -13.341706 11.397403 -0.000012 0.000012 -2.999990 -4.999818 -7.998689 -0.000131 -10.110882 67.660872 12.425956 90.033682 24.127886 -66.262199 0.000000 -0.000000 0.000008 51.139529 15.862348 -4.914791 0.000007 -0.000120 3.004829 -4.999978 7.999592 -0.000082 0.283804 -175.999058 -0.047329 -179.999991 0.000005 -1.270993 162.686746 1.913273 -0.639736 -0.000005 0.000006 0.400294 70.528649 6.897887 2.003186 27.665278 -7.243721 3.177962 -4.029194 -179.933178 4.557417 -0.000004 -0.000005 -1.070225 -12.063901 -0.024370 0.414446 -0.000002 -0.000000 -0.015961 66.687843 -6.980338 -2.056687 25.456960 7.355625 -0.000008 
48.178196 -3.920400 93.423790 -2.991410 -5.186630 51.720037 -0.427731 -0.197167 0.314519 3.157965 -0.393506 0.629680 4.803019 -0.385935 0.634369 1.626259 15.160076 2.386581 6.579423 -12.098575 2.183603 -3.147770 -57.429767 -3.567259 139.510876 -22.870567 61.904067 0.000000 0.000002 -0.000005 68.870846 -13.312430 11.355121 -0.000013 0.000009 -2.999988 -4.999816 -7.998689 -0.000132 -10.140712 67.651719 12.459029 89.990980 24.045307 -66.166174 -0.000000 0.000002 0.000008 50.743538 16.033403 -4.979977 0.000007 -0.000120 3.004831 -4.999977 7.999592 -0.000082 0.368896 -176.063084 -0.049891 -179.999991 0.000005 -1.270995 162.749966 1.874776 -0.641002 -0.000004 0.000006 0.400444 70.562261 6.896648 2.004184 27.656310 -7.244146 3.167788 -4.071641 -179.960089 4.556171 -0.000006 -0.000005 -1.070223 -12.090502 -0.041777 0.413589 -0.000003 -0.000000 -0.016140 66.696094 -6.980248 -2.056744 25.456960 7.355625 -0.000006 
48.134098 -3.980539 93.421501 -2.979524 -5.199928 51.895719 -0.427432 -0.197951 0.317976 3.160665 -0.395059 0.636694 4.805710 -0.387406 0.641387 1.671223 15.191133 2.344307 6.580257 -12.145868 2.149827 -3.164863 -57.365099 -3.580677 139.573304 -22.944590 62.121807 -0.000000 0.000000 -0.000003 68.833957 -13.282786 11.312590 -0.000012 0.000010 -2.999989 -4.999817 -7.998687 -0.000133 -10.170327 67.642574 12.491899 89.948530 23.962264 -66.070175 -0.000002 0.000001 0.000010 50.347394 16.206386 -5.043022 0.000009 -0.000119 3.004829 -4.999975 7.999590 -0.000080 0.454050 -176.127110 -0.052609 -179.999991 0.000005 -1.270997 162.813104 1.835282 -0.642475 -0.000004 0.000007 0.400590 70.595900 6.895443 2.005096 27.647351 -7.244561 3.157623 -4.114050 -179.988025 4.555040 -0.000004 -0.000005 -1.070222 -12.117205 -0.059197 0.412717 -0.000003 -0.000001 -0.016316 66.704338 -6.980160 -2.056803 25.456962 7.355625 -0.000006 
48.071198 -4.024817 93.416595 -2.967505 -5.213119 52.071132 -0.427160 -0.198706 0.321425 3.163276 -0.396556 0.643686 4.808321 -0.388818 0.648388 1.716437 15.222084 2.302073 6.580934 -12.193168 2.116190 -3.181319 -57.301141 -3.593394 139.636579 -23.018899 62.339341 -0.000001 0.000001 -0.000002 68.796459 -13.253730 11.270681 -0.000012 0.000011 -2.999992 -4.999815 -7.998690 -0.000130 -10.200216 67.633298 12.525068 89.906449 23.879839 -65.974313 -0.000001 0.000003 0.000008 49.951540 16.380744 -5.103853 0.000010 -0.000118 3.004829 -4.999980 7.999590 -0.000080 0.539042 -176.191177 -0.055585 -179.999991 0.000005 -1.271002 162.876420 1.795759 -0.642860 -0.000005 0.000007 0.400733 70.629443 6.894240 2.005910 27.638393 -7.244969 3.147424 -4.156538 -180.015960 4.553957 -0.000005 -0.000005 -1.070223 -12.143808 -0.076591 0.411826 -0.000003 -0.000000 -0.016490 66.712466 -6.980062 -2.056965 25.456962 7.355625 -0.000005 
48.005600 -4.055125 93.415802 -2.955185 -5.226089 52.246289 -0.426966 -0.199391 0.324864 3.165678 -0.397907 0.650620 4.810731 -0.390086 0.655347 1.762265 15.252717 2.260035 6.581205 -12.240574 2.082874 -3.196224 -57.238823 -3.604466 139.699170 -23.094772 62.556152 -0.000000 0.000001 -0.000003 68.757267 -13.226432 11.230156 -0.000013 0.000011 -2.999992 -4.999816 -7.998688 -0.000132 -10.230760 67.623476 12.558936 89.864785 23.798648 -65.878807 -0.000000 0.000001 0.000009 49.556270 16.556338 -5.162754 0.000007 -0.000117 3.004829 -4.999978 7.999592 -0.000083 0.623642 -176.254220 -0.058914 -179.999991 0.000005 -1.270996 162.940037 1.757178 -0.643872 -0.000005 0.000006 0.400859 70.662658 6.893035 2.006942 27.629324 -7.245396 3.137130 -4.199231 -180.042899 4.552807 -0.000004 -0.000005 -1.070223 -12.169913 -0.093922 0.410923 -0.000003 -0.000001 -0.016641 66.720300 -6.980000 -2.056953 25.456960 7.355620 -0.000006 
47.955498 -4.099929 93.403389 -2.942412 -5.238721 52.420811 -0.426884 -0.199959 0.328264 3.167757 -0.399029 0.657478 4.812813 -0.391125 0.662215 1.809034 15.282936 2.218340 6.580851 -12.288198 2.050105 -3.208693 -57.179164 -3.612920 139.759686 -23.174299 62.770736 -0.000000 0.000001 -0.000003 68.715487 -13.201837 11.191929 -0.000012 0.000009 -2.999988 -4.999816 -7.998688 -0.000129 -10.262441 67.612958 12.594062 89.823497 23.719591 -65.783533 -0.000000 0.000003 0.000006 49.162264 16.732686 -5.219894 0.000008 -0.000120 3.004832 -4.999976 7.999590 -0.000078 0.707629 -176.318273 -0.062693 -179.999991 0.000005 -1.270998 163.004309 1.718574 -0.644832 -0.000005 0.000007 0.400966 70.695572 6.891827 2.007796 27.620156 -7.245851 3.126695 -4.242233 -180.070820 4.551732 -0.000005 -0.000005 -1.070221 -12.195223 -0.111152 0.409975 -0.000003 -0.000001 -0.016753 66.727622 -6.979956 -2.056978 25.456965 7.355622 -0.000006 
47.913795 -4.155777 93.404503 -2.929023 -5.250901 52.594420 -0.426958 -0.200368 0.331613 3.169378 -0.399835 0.664220 4.814433 -0.391851 0.668964 1.857131 15.312630 2.177129 6.579618 -12.336134 2.018080 -3.217853 -57.122996 -3.617818 139.817046 -23.258049 62.983360 -0.000003 -0.000001 -0.000003 68.670018 -13.181008 11.156852 -0.000012 0.000011 -2.999988 -4.999816 -7.998689 -0.000129 -10.295584 67.601435 12.630798 89.782673 23.643465 -65.688900 0.000000 0.000002 0.000009 48.769784 16.909516 -5.275527 0.000009 -0.000119 3.004830 -4.999979 7.999591 -0.000080 0.790778 -176.381343 -0.067004 -179.999991 0.000005 -1.270996 163.069291 1.680900 -0.645419 -0.000005 0.000006 0.401036 70.727763 6.890693 2.008611 27.610901 -7.246336 3.116067 -4.285665 -180.098729 4.550639 -0.000004 -0.000005 -1.070220 -12.219532 -0.128246 0.409014 -0.000003 -0.000001 -0.016821 66.734309 -6.979910 -2.057044 25.456959 7.355629 -0.000007 
47.858398 -4.192587 93.399597 -2.914865 -5.262519 52.767023 -0.427235 -0.200575 0.334912 3.170437 -0.400237 0.670817 4.815483 -0.392175 0.675567 1.906875 15.341699 2.136548 6.577280 -12.384403 1.986987 -3.222843 -57.071435 -3.618244 139.869994 -23.347347 63.193361 0.000002 0.000002 -0.000005 68.619857 -13.164938 11.125627 -0.000014 0.000009 -2.999990 -4.999813 -7.998688 -0.000132 -10.330640 67.588574 12.669647 89.742361 23.571181 -65.594842 -0.000002 0.000001 0.000008 48.379446 17.086497 -5.329777 0.000007 -0.000119 3.004826 -4.999979 7.999593 -0.000083 0.872863 -176.443416 -0.071941 -179.999991 0.000005 -1.270997 163.135353 1.644163 -0.646661 -0.000006 0.000006 0.401063 70.759121 6.889589 2.009580 27.601536 -7.246837 3.105188 -4.329650 -180.126637 4.549525 -0.000005 -0.000004 -1.070218 -12.242539 -0.145167 0.408023 -0.000003 -0.000001 -0.016835 66.740169 -6.979933 -2.056976 25.456957 7.355621 -0.000005 
